<svg id="Layer_1" data-name="Layer 1" xmlns="http://www.w3.org/2000/svg" viewBox="0 0 238.67 52.03"><defs><style>.cls-1{fill:#fff;}.cls-2{fill:#008cff;}</style></defs><path class="cls-1" d="M7073.3,7180.11a84.65,84.65,0,0,1,13-1c8.75,0,15,2,19.16,5.73s6.7,9,6.7,16.31-2.42,13.52-6.8,17.74-11.78,6.57-20.94,6.57a103.16,103.16,0,0,1-11.12-.51Zm6.14,40.33a43.81,43.81,0,0,0,6.14.28c13.09,0,20.15-7,20.15-19.33.07-10.76-6.25-17.56-19.13-17.56a37.67,37.67,0,0,0-7.16.6Z" transform="translate(-7073.3 -7175.98)"/><path class="cls-1" d="M7126.73,7210.75l-4.89,14.33h-6.33l16.09-45.59h7.34l16.16,45.59h-6.54l-5.06-14.33Zm15.53-4.61-4.68-13.12c-1-3-1.74-5.7-2.44-8.31H7135c-.68,2.66-1.42,5.45-2.35,8.23l-4.66,13.2Z" transform="translate(-7073.3 -7175.98)"/><path class="cls-1" d="M7201.4,7201.83c0,15.64-9.89,24-21.95,24-12.54,0-21.26-9.36-21.26-23.14,0-14.44,9.28-23.94,21.9-23.94C7193,7178.74,7201.4,7188.28,7201.4,7201.83Zm-36.75.71c0,9.76,5.5,18.49,15.13,18.49s15.16-8.59,15.16-18.95c0-9.07-4.92-18.55-15.08-18.55S7164.65,7192.57,7164.65,7202.54Z" transform="translate(-7073.3 -7175.98)"/><rect class="cls-1" x="135.39" width="103.28" height="52.03"/><path class="cls-2" d="M7213.24,7192.72h15.3v5.13h-15.3Zm3.24-4.16q0-4.06,1.87-6.08t5.77-2h4.42v5.71h-4.31a1.46,1.46,0,0,0-1.29.65,2.92,2.92,0,0,0-.45,1.68v34.82h-6Z" transform="translate(-7073.3 -7175.98)"/><path class="cls-2" d="M7235.61,7180.46h6v6h-6Zm0,12.26h6v30.6h-6Z" transform="translate(-7073.3 -7175.98)"/><path class="cls-2" d="M7250.77,7192.72h6v30.6h-6Zm18.57,12.06a7,7,0,0,0-1.68-5,6.19,6.19,0,0,0-4.72-1.77,6.26,6.26,0,0,0-4.55,1.56,5.84,5.84,0,0,0-1.61,4.39l-.62-5.89a11,11,0,0,1,3.7-4.28,9,9,0,0,1,5.06-1.5,9.48,9.48,0,0,1,7.71,3.26q2.71,3.26,2.72,9.21v18.57h-6Z" transform="translate(-7073.3 -7175.98)"/><path class="cls-2" d="M7288.46,7222.39a9.16,9.16,0,0,1-3.61-4.26,16.49,16.49,0,0,1-1.24-6.72v-6.75a16.93,16.93,0,0,1,1.21-6.75,9.11,9.11,0,0,1,3.52-4.26,10.24,10.24,0,0,1,5.56-1.46,9.21,9.21,0,0,1,5,1.41,10.56,10.56,0,0,1,3.64,4l-.62,6.25a7.3,7.3,0,0,0-.71-3.33,4.91,4.91,0,0,0-2.05-2.11,6.8,6.8,0,0,0-3.26-.72,5.82,5.82,0,0,0-4.61,1.86,7.65,7.65,0,0,0-1.64,5.22v6.66a7.4,7.4,0,0,0,1.64,5.14,5.89,5.89,0,0,0,4.61,1.82,6.58,6.58,0,0,0,3.26-.75,5.06,5.06,0,0,0,2.05-2.17,7.51,7.51,0,0,0,.71-3.39l.41,6.45a8.72,8.72,0,0,1-3,3.81,8.4,8.4,0,0,1-5.12,1.53A10.75,10.75,0,0,1,7288.46,7222.39Zm13.43-41.93h6v42.86h-6Z" transform="translate(-7073.3 -7175.98)"/></svg>